<?xml version="1.0" encoding="utf-8"?>
<!-- Generator: Adobe Illustrator 26.0.1, SVG Export Plug-In . SVG Version: 6.00 Build 0)  -->
<svg version="1.1" xmlns="http://www.w3.org/2000/svg" xmlns:xlink="http://www.w3.org/1999/xlink" x="0px" y="0px"
	 viewBox="0 0 1753 516" style="enable-background:new 0 0 1753 516;" xml:space="preserve">
<g id="Lager_1">
	<g>
		<path d="M795,238c6.62,0,12,5.38,12,12s-5.38,12-12,12s-12-5.38-12-12S788.38,238,795,238 M795,223c-14.91,0-27,12.09-27,27
			s12.09,27,27,27c14.91,0,27-12.09,27-27S809.91,223,795,223L795,223z"/>
	</g>
	<g>
		<path d="M891,239c6.62,0,12,5.38,12,12h15c0-14.91-12.09-27-27-27l0,0c-14.91,0-27,12.09-27,27h15C879,244.38,884.38,239,891,239"
			/>
	</g>
	<g>
		<path d="M930,238c6.62,0,12,5.38,12,12h15c0-14.91-12.09-27-27-27l0,0c-14.91,0-27,12.09-27,27h15C918,243.38,923.38,238,930,238"
			/>
	</g>
	<g>
		<rect x="807" y="223" width="15" height="54"/>
	</g>
	<g>
		<rect x="968" y="224" width="15" height="53"/>
	</g>
	<g>
		<rect x="903" y="250" width="15" height="27"/>
	</g>
	<g>
		<rect x="864" y="223" width="15" height="54"/>
	</g>
	<g>
		<rect x="942" y="250" width="15" height="27"/>
	</g>
	<g>
		<rect x="836.18" y="200" width="15" height="77"/>
	</g>
	<g>
		<circle cx="975" cy="208" r="9"/>
	</g>
</g>
<g id="Lager_2">
</g>
</svg>
